HIERARCHY
ROOT SpineBase
{
  OFFSET 0.000000 0.000000 0.000000
  CHANNELS 6 Xposition Yposition Zposition Zrotation Xrotation Yrotation
  JOINT SpineMid
  {
    OFFSET -0.000000 26.336164 0.000000
    CHANNELS 3 Zrotation Xrotation Yrotation
    JOINT SpineShoulder
    {
      OFFSET -0.082489 19.641328 -0.645970
      CHANNELS 3 Zrotation Xrotation Yrotation
      JOINT Neck
      {
        OFFSET -0.043642 6.526943 -0.493913
        CHANNELS 3 Zrotation Xrotation Yrotation
        JOINT Head
        {
          OFFSET -3.424748 10.565741 0.632954
          CHANNELS 3 Zrotation Xrotation Yrotation
          End Site
          {
            OFFSET 0 0 0
          }
        }
      }
      JOINT ShoulderLeft
      {
        OFFSET -12.862808 -3.725354 5.592989
        CHANNELS 3 Zrotation Xrotation Yrotation
        JOINT ElbowLeft
        {
          OFFSET -0.157557 -21.280338 1.174988
          CHANNELS 3 Zrotation Xrotation Yrotation
          JOINT WristLeft
          {
            OFFSET -4.177936 4.508419 -22.093742
            CHANNELS 3 Zrotation Xrotation Yrotation
            JOINT HandLeft
            {
              OFFSET 2.765797 1.461409 -1.774535
              CHANNELS 3 Zrotation Xrotation Yrotation
              JOINT HandTipLeft
              {
                OFFSET 4.794359 1.328401 -6.461849
                CHANNELS 3 Zrotation Xrotation Yrotation
                End Site
                {
                  OFFSET 0 0 0
                }
              }
              JOINT ThumbLeft
              {
                OFFSET 2.020470 2.561727 -3.135413
                CHANNELS 3 Zrotation Xrotation Yrotation
                End Site
                {
                  OFFSET 0 0 0
                }
              }
            }
          }
        }
      }
      JOINT ShoulderRight
      {
        OFFSET 10.176892 -2.378958 -7.508645
        CHANNELS 3 Zrotation Xrotation Yrotation
        JOINT ElbowRight
        {
          OFFSET 6.557031 -18.659369 -2.458633
          CHANNELS 3 Zrotation Xrotation Yrotation
          JOINT WristRight
          {
            OFFSET -20.550139 1.957436 -12.674084
            CHANNELS 3 Zrotation Xrotation Yrotation
            JOINT HandRight
            {
              OFFSET -1.640365 0.692434 -0.230866
              CHANNELS 3 Zrotation Xrotation Yrotation
              JOINT HandTipRight
              {
                OFFSET -2.610118 0.988275 -1.372934
                CHANNELS 3 Zrotation Xrotation Yrotation
                End Site
                {
                  OFFSET 0 0 0
                }
              }
              JOINT ThumbRight
              {
                OFFSET -1.426095 -0.339564 -0.136225
                CHANNELS 3 Zrotation Xrotation Yrotation
                End Site
                {
                  OFFSET 0 0 0
                }
              }
            }
          }
        }
      }
    }
  }
  JOINT HipLeft
  {
    OFFSET -5.289581 0.281743 -0.914177
    CHANNELS 3 Zrotation Xrotation Yrotation
    JOINT KneeLeft
    {
      OFFSET 4.659570 -35.288336 2.368682
      CHANNELS 3 Zrotation Xrotation Yrotation
      JOINT AnkleLeft
      {
        OFFSET 6.537814 -30.717808 4.003274
        CHANNELS 3 Zrotation Xrotation Yrotation
        JOINT FootLeft
        {
          OFFSET -1.000585 -5.255333 -3.107184
          CHANNELS 3 Zrotation Xrotation Yrotation
          End Site
          {
            OFFSET 0 0 0
          }
        }
      }
    }
  }
  JOINT HipRight
  {
    OFFSET 4.899096 1.190013 -5.095531
    CHANNELS 3 Zrotation Xrotation Yrotation
    JOINT KneeRight
    {
      OFFSET 5.508151 -34.220112 -1.501219
      CHANNELS 3 Zrotation Xrotation Yrotation
      JOINT AnkleRight
      {
        OFFSET 2.727137 -32.948164 5.294132
        CHANNELS 3 Zrotation Xrotation Yrotation
        JOINT FootRight
        {
          OFFSET -3.589582 -5.704053 -1.084928
          CHANNELS 3 Zrotation Xrotation Yrotation
          End Site
          {
            OFFSET 0 0 0
          }
        }
      }
    }
  }
}
MOTION
Frames: 6
Frame Time: 0.033333
23.890169 70.946244 365.551522 1.659985 -0.423442 21.167169 -0.293323 -0.172051 -21.112102 0.044091 -0.154958 0.064266 8.095501 -10.066426 -3.369615 0.000000 0.000000 0.000000 -6.121147 -3.394066 -0.422480 13.670894 -7.119344 21.731078 32.134967 -0.710019 78.935915 -11.848390 37.450111 -47.728622 0.000000 0.000000 0.000000 0.000000 0.000000 0.000000 5.700532 -3.308882 -2.309923 3.221421 -5.954322 -13.888099 -13.340440 -4.681894 -10.528863 5.883855 14.070795 33.210642 0.000000 0.000000 0.000000 0.000000 0.000000 0.000000 -2.973551 0.947180 -21.301011 0.357399 -2.266970 -0.601070 20.747009 17.968740 -16.611065 0.000000 0.000000 0.000000 -2.577705 1.413943 -21.074560 2.288435 -0.143838 0.102576 -2.580989 9.175918 -5.271131 0.000000 0.000000 0.000000
23.908767 70.919649 365.596148 1.652231 -0.546980 21.180898 -0.308049 -0.150654 -21.125360 0.024951 -0.154690 0.061319 8.891289 -9.971441 -3.364407 0.000000 0.000000 0.000000 -5.288163 -6.084198 -0.421769 13.242493 -4.940847 21.821248 34.375745 3.980862 74.225437 -15.261132 36.934660 -46.302452 0.000000 0.000000 0.000000 0.000000 0.000000 0.000000 6.132487 -3.185946 -2.353692 0.378600 -3.840325 -12.791179 -14.748950 -6.290919 -14.326092 7.256037 15.818082 36.317159 0.000000 0.000000 0.000000 0.000000 0.000000 0.000000 -2.855571 0.987090 -21.311155 -0.074720 -2.033698 -0.607591 20.501225 21.489531 -17.059439 0.000000 0.000000 0.000000 -2.410695 1.626317 -21.066556 2.200586 -0.259402 0.086659 -3.896269 4.712677 -2.288192 0.000000 0.000000 0.000000
23.933068 70.894175 365.650321 1.664590 -0.670108 21.343387 -0.314727 -0.117922 -21.286509 0.017234 -0.159006 0.060322 9.422004 -9.750570 -3.338277 0.000000 0.000000 0.000000 -6.239293 -7.102682 -0.545302 14.354629 -4.394633 21.516759 31.486027 1.961937 69.974233 -10.656162 33.591539 -45.875522 0.000000 0.000000 0.000000 0.000000 0.000000 0.000000 6.611289 -3.115356 -2.421124 -2.465853 -2.071552 -12.875492 -13.629031 -7.919531 -16.494169 7.898889 16.657135 37.485280 0.000000 0.000000 0.000000 0.000000 0.000000 0.000000 -2.672299 0.952540 -21.472006 -0.499914 -1.628340 -0.567668 19.761903 23.160399 -16.746254 0.000000 0.000000 0.000000 -2.279954 1.780478 -21.219721 1.106205 -0.161054 -0.072790 -2.677562 1.195015 -0.211228 0.000000 0.000000 0.000000
23.943627 70.871737 365.720359 1.703990 -0.798706 21.557268 -0.280902 -0.117321 -21.496397 0.030417 -0.173353 0.064153 9.447529 -9.486490 -3.332937 0.000000 0.000000 0.000000 -5.139958 -8.962660 -0.460333 13.197226 -2.452172 21.281114 33.119900 5.571485 63.030702 -22.153995 31.693182 -34.102740 0.000000 0.000000 0.000000 0.000000 0.000000 0.000000 7.157184 -3.271393 -2.587741 -4.932896 -0.387720 -12.228397 -12.704831 -9.181977 -18.876175 8.832172 14.964789 31.984780 0.000000 0.000000 0.000000 0.000000 0.000000 0.000000 -2.413875 0.845059 -21.684194 -1.047976 -1.211934 -0.533404 21.196850 25.389016 -18.263123 0.000000 0.000000 0.000000 -2.181087 1.883576 -21.435434 1.015752 -0.154199 -0.067922 -4.343183 21.910468 -11.548841 0.000000 0.000000 0.000000
23.945402 70.856529 365.789565 1.763520 -0.935717 21.797065 -0.222144 -0.121708 -21.730646 0.050865 -0.195071 0.070516 9.038926 -9.143268 -3.324767 0.000000 0.000000 0.000000 -4.479840 -10.601539 -0.391929 12.037816 -0.254456 20.418970 38.640505 11.673607 59.514818 -37.645969 31.884269 -27.935154 0.000000 0.000000 0.000000 0.000000 0.000000 0.000000 7.487434 -3.358600 -2.725859 -6.256776 0.403232 -12.196170 -13.126202 -9.459399 -19.185501 10.227737 14.030342 28.777226 0.000000 0.000000 0.000000 0.000000 0.000000 0.000000 -2.113435 0.728707 -21.918568 -1.582533 -0.817310 -0.494891 20.562104 23.935518 -17.307720 0.000000 0.000000 0.000000 -2.147898 1.927301 -21.688858 0.327042 -1.107932 -0.242619 -1.526772 39.539013 -21.830536 0.000000 0.000000 0.000000
23.951304 70.854596 365.868218 1.867152 -1.037938 22.172278 -0.133954 -0.104661 -22.098694 0.085966 -0.194633 0.080705 8.335582 -9.043673 -3.344506 0.000000 0.000000 0.000000 -4.151594 -11.474157 -0.339903 10.904288 1.375406 19.299625 46.092478 18.915390 57.091008 -49.601617 31.999393 -23.227646 0.000000 0.000000 0.000000 0.000000 0.000000 0.000000 7.535185 -3.309667 -2.775346 -7.146485 0.767739 -12.691289 -12.293135 -9.338065 -17.232083 9.853961 12.073543 24.360985 0.000000 0.000000 0.000000 0.000000 0.000000 0.000000 -1.987308 0.969387 -22.261159 -1.695764 -0.820082 -0.490838 20.327552 12.850187 -14.319732 0.000000 0.000000 0.000000 -2.214341 2.003100 -22.069374 -0.014667 -1.231821 -0.304868 1.178179 43.822532 -25.677280 0.000000 0.000000 0.000000
